<svg xmlns="http://www.w3.org/2000/svg" xmlns:xlink="http://www.w3.org/1999/xlink" width="56" height="56" viewBox="0 0 56 56">
    <defs>
        <path id="a" d="M28 0c15.464 0 28 12.536 28 28S43.464 56 28 56 0 43.464 0 28 12.536 0 28 0"/>
    </defs>
    <g fill="none" fill-rule="evenodd">
        <mask id="b" fill="#fff">
            <use xlink:href="#a"/>
        </mask>
        <use fill="#080E18" xlink:href="#a"/>
        <path fill="#07182E" d="M16.7 6.6h10.6c.4 0 .7.3.7.7v2.2c0 .5.4.9.9.9h19.8c.5 0 .9.4.9.9l.1 39.7H16.1L16 7.3c0-.4.4-.7.7-.7" mask="url(#b)"/>
        <path fill="#2356AD" d="M12.6 10.1h10.6c.4 0 .7.3.7.7V13c0 .5.4.9.9.9l19.8-.1c.5 0 .9.4.9.9l.1 39.8-33.6.1-.1-43.8c0-.4.3-.7.7-.7" mask="url(#b)"/>
        <path fill="#3177ED" d="M7.6 13.5h10.6c.4 0 .7.3.7.7v2.3c0 .5.4.9.8.9l19.8-.1c.5 0 .9.5.9 1l.1 39.7H7.1l-.2-43.8c0-.4.3-.7.7-.7" mask="url(#b)"/>
        <path stroke="#FFF" stroke-width=".95" d="M17 31.1h13.4c1.1 0 2 .9 2 2v7.6c0 1.1-.9 2-2 2H17c-1.1 0-2-.9-2-2v-7.6c0-1.1.9-2 2-2z" mask="url(#b)"/>
        <path stroke="#FFF" d="M20.5 30.9v-2.4c0-.4.3-.7.7-.7h5.1c.4 0 .7.3.7.7V31" mask="url(#b)"/>
        <path stroke="#FFF" stroke-width=".95" d="M15 36.9h17.5" mask="url(#b)"/>
        <path stroke="#FFF" stroke-linecap="round" d="M17.6 35.4v2.9M29.7 35.4v2.9" mask="url(#b)"/>
    </g>
</svg>
