<svg xmlns="http://www.w3.org/2000/svg" width="512" height="512" viewBox="0 0 512 512"><path d="M395.7 272c-.6-64.8 53-96 55.3-97.4-30-44-77-50-93.6-50.8-40-4-77.8 23.5-98 23.5-20.2 0-51.4-23-84.5-22.3-43.7.7-83.7 25.3-106 64.2-45.3 78.4-11.7 194.4 32.3 258 21.5 31 47.2 66 80.8 64.8 32.6-1.3 44.8-21 84-21 39 0 50 21 84.5 20.3 35-.6 57-31.7 78.4-63 24.6-36 35-71 35.4-72.7-.8-.3-68-26-68.8-103.6zM331.3 81.8C349 60 361.3 30 358 0c-25.8 1-57 17-75.5 38.8-16.6 19.2-31 49.8-27.2 79.2 28.8 2.2 58-14.6 76-36.2z" fill="#000"/></svg>