<svg xmlns="http://www.w3.org/2000/svg" xmlns:xlink="http://www.w3.org/1999/xlink" width="56" height="56" viewBox="0 0 56 56">
    <defs>
        <path id="a" d="M28 0c15.464 0 28 12.536 28 28S43.464 56 28 56 0 43.464 0 28 12.536 0 28 0"/>
    </defs>
    <g fill="none" fill-rule="evenodd">
        <mask id="b" fill="#fff">
            <use xlink:href="#a"/>
        </mask>
        <use fill="#080E18" xlink:href="#a"/>
        <path fill="#07182E" d="M16.7 6.6h10.6c.4 0 .7.3.7.7v2.2c0 .5.4.9.9.9h19.8c.5 0 .9.4.9.9l.1 39.7H16.1L16 7.3c0-.4.4-.7.7-.7" mask="url(#b)"/>
        <path fill="#2356AD" d="M12.6 10.1h10.6c.4 0 .7.3.7.7V13c0 .5.4.9.9.9l19.8-.1c.5 0 .9.4.9.9l.1 39.8-33.6.1-.1-43.8c0-.4.3-.7.7-.7" mask="url(#b)"/>
        <path fill="#3177ED" d="M7.6 13.5h10.6c.4 0 .7.3.7.7v2.3c0 .5.4.9.8.9l19.8-.1c.5 0 .9.5.9 1l.1 39.7H7.1l-.2-43.8c0-.4.3-.7.7-.7" mask="url(#b)"/>
        <path stroke="#FFF" stroke-width="1.15" d="M23.7 29.7c.2-.2.3-.5.5-.8.9-1.1 2.3-1.6 3.7-1.5 2 .2 3.7 1.7 3.9 3.8.2 1.4 0 2.8-.7 4-.8 1.4-1.8 2.7-2.9 3.8-1.4 1.4-2.8 2.7-4.4 3.8l-.2.1-.9-.6c-1.8-1.4-3.4-2.9-4.9-4.7-.9-1.1-1.7-2.3-2.2-3.6-.6-1.6-.4-3.5.6-4.9.8-1.2 2.2-1.9 3.6-1.8 1.8.2 3.2 1 3.9 2.4z" mask="url(#b)"/>
    </g>
</svg>
