<svg xmlns="http://www.w3.org/2000/svg" xmlns:xlink="http://www.w3.org/1999/xlink" width="56" height="56" viewBox="0 0 56 56">
    <defs>
        <path id="a" d="M28 0c15.464 0 28 12.536 28 28S43.464 56 28 56 0 43.464 0 28 12.536 0 28 0"/>
    </defs>
    <g fill="none" fill-rule="evenodd">
        <mask id="b" fill="#fff">
            <use xlink:href="#a"/>
        </mask>
        <use fill="#080E18" xlink:href="#a"/>
        <path fill="#07182E" d="M16.7 6.6h10.6c.4 0 .7.3.7.7v2.2c0 .5.4.9.9.9h19.8c.5 0 .9.4.9.9l.1 39.7H16.1L16 7.3c0-.4.4-.7.7-.7" mask="url(#b)"/>
        <path fill="#2356AD" d="M12.6 10.1h10.6c.4 0 .7.3.7.7V13c0 .5.4.9.9.9l19.8-.1c.5 0 .9.4.9.9l.1 39.8-33.6.1-.1-43.8c0-.4.3-.7.7-.7" mask="url(#b)"/>
        <path fill="#3177ED" d="M7.6 13.5h10.6c.4 0 .7.3.7.7v2.3c0 .5.4.9.8.9l19.8-.1c.5 0 .9.5.9 1l.1 39.7H7.1l-.2-43.8c0-.4.3-.7.7-.7" mask="url(#b)"/>
        <path fill="#FFF" d="M13.8 36.6l5.6 2.9c.2.1.5 0 .6-.2v-.2c0-.2-.1-.3-.2-.4L14.5 36l5.2-2.7c.1-.1.2-.2.2-.4s-.2-.4-.4-.4h-.2l-5.5 3c-.2.1-.3.3-.3.5s.1.5.3.6" mask="url(#b)"/>
        <path stroke="#FFF" stroke-width=".48" d="M13.8 36.6l5.6 2.9c.2.1.5 0 .6-.2v-.2c0-.2-.1-.3-.2-.4L14.5 36l5.2-2.7c.1-.1.2-.2.2-.4s-.2-.4-.4-.4h-.2l-5.5 3c-.2.1-.3.3-.3.5s.1.5.3.6z" mask="url(#b)"/>
        <path fill="#FFF" d="M22.4 40.3c.2 0 .4-.1.4-.2l3.6-9.3c.1-.2 0-.5-.3-.6H26c-.2 0-.4.1-.4.2L22 39.7c-.1.2 0 .5.2.6h.2z" mask="url(#b)"/>
        <path stroke="#FFF" stroke-width=".48" d="M22.4 40.3c.2 0 .4-.1.4-.2l3.6-9.3c.1-.2 0-.5-.3-.6H26c-.2 0-.4.1-.4.2L22 39.7c-.1.2 0 .5.2.6h.2z" mask="url(#b)"/>
        <path fill="#FFF" d="M27.5 33c0 .2.1.3.2.4L33 36l-5.3 2.6c-.1.1-.2.2-.2.4s.2.4.4.4h.2l5.5-2.9c.2-.1.3-.3.3-.6 0-.2-.1-.5-.3-.6l-5.5-2.9c-.2-.1-.5-.1-.6.1v.5z" mask="url(#b)"/>
        <path stroke="#FFF" stroke-width=".48" d="M27.5 33c0 .2.1.3.2.4L33 36l-5.3 2.6c-.1.1-.2.2-.2.4s.2.4.4.4h.2l5.5-2.9c.2-.1.3-.3.3-.6 0-.2-.1-.5-.3-.6l-5.5-2.9c-.2-.1-.5-.1-.6.1v.5z" mask="url(#b)"/>
    </g>
</svg>
