<svg xmlns="http://www.w3.org/2000/svg" xmlns:xlink="http://www.w3.org/1999/xlink" width="56" height="56" viewBox="0 0 56 56">
    <defs>
        <path id="a" d="M28 0c15.464 0 28 12.536 28 28S43.464 56 28 56 0 43.464 0 28 12.536 0 28 0"/>
    </defs>
    <g fill="none" fill-rule="evenodd">
        <mask id="b" fill="#fff">
            <use xlink:href="#a"/>
        </mask>
        <use fill="#080E18" xlink:href="#a"/>
        <path fill="#07182E" d="M16.7 6.6h10.6c.4 0 .7.3.7.7v2.2c0 .5.4.9.9.9h19.8c.5 0 .9.4.9.9l.1 39.7H16.1L16 7.3c0-.4.4-.7.7-.7" mask="url(#b)"/>
        <path fill="#2356AD" d="M12.6 10.1h10.6c.4 0 .7.3.7.7V13c0 .5.4.9.9.9l19.8-.1c.5 0 .9.4.9.9l.1 39.8-33.6.1-.1-43.8c0-.4.3-.7.7-.7" mask="url(#b)"/>
        <path fill="#3177ED" d="M7.6 13.5h10.6c.4 0 .7.3.7.7v2.3c0 .5.4.9.8.9l19.8-.1c.5 0 .9.5.9 1l.1 39.7H7.1l-.2-43.8c0-.4.3-.7.7-.7" mask="url(#b)"/>
        <path fill="#FFF" d="M29.3 27.5l-.1-.1-.6-.1c-1.5-.4-3 .5-3.4 2-.1.4-.1.7 0 1.1 0 .6.1 1.1.2 1.7 0 .2-.1.5-.2.6-1.3 1.3-2.5 2.6-3.8 3.8-.3.3-.7.4-1 .3-.6-.1-1.3-.2-1.9-.2-1.6 0-2.8 1.3-2.8 2.9 0 .5.1.9.3 1.3.1-.1.1-.2.2-.3l1.5-1.5c.6-.6 1.6-.6 2.3 0 .2.2.3.4.4.6.2.6.1 1.3-.4 1.7l-1.7 1.6.1.1c.2 0 .4.1.6.2 1.5.4 3-.5 3.4-2 .1-.3.1-.6.1-1 0-.5 0-1-.1-1.6 0-.3.1-.6.3-.8l3.6-3.5c.8-.8.8-.8 1.9-.7.6.1 1.2.1 1.8 0 1.5-.4 2.4-2 2-3.5-.1-.2-.1-.4-.2-.5l-.3.3-1.4 1.5c-.6.7-1.7.8-2.4.2-.6-.7-.6-1.7.1-2.3.5-.8 1-1.3 1.5-1.8zm3.2 4.1c-.1.8-.5 1.5-1 2-.6.7-1.5 1-2.5 1l-1.6-.1c-.2 0-.3.1-.4.2l-3.8 3.8c-.1.1-.2.2-.2.4 0 .7.1 1.4 0 2.1-.1 1.5-1.2 2.7-2.7 3l-.2.1H19c-.4-.1-.9-.2-1.3-.4s-.5-.4-.1-.8l1.8-1.8c.4-.3.5-1 .1-1.4l-.1-.1c-.4-.3-1-.3-1.4.1l-1.8 1.8c-.2.2-.4.2-.6-.1-1.1-1.7-.6-3.9 1-5h.1c.3-.2.7-.4 1.1-.5.7-.1 1.4-.1 2.1 0 .2 0 .4.1.6.1.1 0 .3 0 .4-.1 1.2-1.2 2.5-2.5 3.6-3.7.1-.1.1-.2.1-.4 0-.6-.1-1.3-.1-1.9-.1-1.3.7-2.5 1.8-3.1 1.2-.6 2.5-.6 3.7.1.3.1.3.4.1.6-.6.6-1.2 1.3-1.9 1.9-.4.4-.5 1-.1 1.4.4.4 1 .4 1.4 0l1.8-1.8c.3-.3.6-.3.7.1.2.4.3 1 .5 1.4v1.1z" mask="url(#b)"/>
        <path stroke="#FFF" stroke-width=".38" d="M29.3 27.5l-.1-.1-.6-.1c-1.5-.4-3 .5-3.4 2-.1.4-.1.7 0 1.1 0 .6.1 1.1.2 1.7 0 .2-.1.5-.2.6-1.3 1.3-2.5 2.6-3.8 3.8-.3.3-.7.4-1 .3-.6-.1-1.3-.2-1.9-.2-1.6 0-2.8 1.3-2.8 2.9 0 .5.1.9.3 1.3.1-.1.1-.2.2-.3l1.5-1.5c.6-.6 1.6-.6 2.3 0 .2.2.3.4.4.6.2.6.1 1.3-.4 1.7l-1.7 1.6.1.1c.2 0 .4.1.6.2 1.5.4 3-.5 3.4-2 .1-.3.1-.6.1-1 0-.5 0-1-.1-1.6 0-.3.1-.6.3-.8l3.6-3.5c.8-.8.8-.8 1.9-.7.6.1 1.2.1 1.8 0 1.5-.4 2.4-2 2-3.5-.1-.2-.1-.4-.2-.5l-.3.3-1.4 1.5c-.6.7-1.7.8-2.4.2-.6-.7-.6-1.7.1-2.3.5-.8 1-1.3 1.5-1.8zm3.2 4.1c-.1.8-.5 1.5-1 2-.6.7-1.5 1-2.5 1l-1.6-.1c-.2 0-.3.1-.4.2l-3.8 3.8c-.1.1-.2.2-.2.4 0 .7.1 1.4 0 2.1-.1 1.5-1.2 2.7-2.7 3l-.2.1H19c-.4-.1-.9-.2-1.3-.4s-.5-.4-.1-.8l1.8-1.8c.4-.3.5-1 .1-1.4l-.1-.1c-.4-.3-1-.3-1.4.1l-1.8 1.8c-.2.2-.4.2-.6-.1-1.1-1.7-.6-3.9 1-5h.1c.3-.2.7-.4 1.1-.5.7-.1 1.4-.1 2.1 0 .2 0 .4.1.6.1.1 0 .3 0 .4-.1 1.2-1.2 2.5-2.5 3.6-3.7.1-.1.1-.2.1-.4 0-.6-.1-1.3-.1-1.9-.1-1.3.7-2.5 1.8-3.1 1.2-.6 2.5-.6 3.7.1.3.1.3.4.1.6-.6.6-1.2 1.3-1.9 1.9-.4.4-.5 1-.1 1.4.4.4 1 .4 1.4 0l1.8-1.8c.3-.3.6-.3.7.1.2.4.3 1 .5 1.4v1.1z" mask="url(#b)"/>
    </g>
</svg>
