<svg xmlns="http://www.w3.org/2000/svg" xmlns:xlink="http://www.w3.org/1999/xlink" width="56" height="56" viewBox="0 0 56 56">
    <defs>
        <path id="a" d="M28 0c15.464 0 28 12.536 28 28S43.464 56 28 56 0 43.464 0 28 12.536 0 28 0"/>
    </defs>
    <g fill="none" fill-rule="evenodd">
        <mask id="b" fill="#fff">
            <use xlink:href="#a"/>
        </mask>
        <use fill="#080E18" xlink:href="#a"/>
        <path fill="#07182E" d="M16.7 6.6h10.6c.4 0 .7.3.7.7v2.2c0 .5.4.9.9.9h19.8c.5 0 .9.4.9.9l.1 39.7H16.1L16 7.3c0-.4.4-.7.7-.7" mask="url(#b)"/>
        <path fill="#2356AD" d="M12.6 10.1h10.6c.4 0 .7.3.7.7V13c0 .5.4.9.9.9l19.8-.1c.5 0 .9.4.9.9l.1 39.8-33.6.1-.1-43.8c0-.4.3-.7.7-.7" mask="url(#b)"/>
        <path fill="#3177ED" d="M7.6 13.5h10.6c.4 0 .7.3.7.7v2.3c0 .5.4.9.8.9l19.8-.1c.5 0 .9.5.9 1l.1 39.7H7.1l-.2-43.8c0-.4.3-.7.7-.7" mask="url(#b)"/>
        <path fill="#FFF" d="M22.7 44.9h1.8c.1 0 .1 0 .2-.1l.6-2.3c0-.1.1-.2.2-.2l.5-.2 1.1-.5c.2-.1.4-.1.5 0 .6.4 1.3.8 1.9 1.1 0 .1.1.1.2 0l1.2-1.2c.1-.1.1-.2 0-.2-.3-.6-.7-1.2-1.1-1.8-.2-.3-.2-.3 0-.7l.4-.9.3-.7c0-.1.1-.2.2-.2l.7-.1 1.7-.5c.1 0 .1 0 .1-.1v-1.7c0-.1 0-.1-.1-.1l-.5-.1-1.9-.5c-.1 0-.1-.1-.2-.2-.1-.2-.1-.4-.2-.6-.2-.4-.3-.8-.5-1.1-.1-.1-.1-.3 0-.4.4-.6.8-1.3 1.1-1.9.1-.2.1-.1 0-.3-.4-.4-.8-.7-1.1-1.1-.1-.1-.1-.1-.2 0l-2 1.1c-.1.1-.3.1-.5 0-.6-.3-1.2-.5-1.8-.7l-.1-.1c-.1-.2-.1-.3-.1-.5-.2-.6-.3-1.3-.5-1.9 0-.1 0-.1-.1-.1h-1.7c-.1 0-.2 0-.2.1l-.6 2.3c0 .1-.1.2-.2.2-.6.2-1.2.5-1.8.8-.1.1-.3.1-.4 0-.6-.4-1.3-.8-2-1.2-.1-.1-.1-.1-.2 0l-1.1 1.1c-.1 0-.1.1 0 .2.4.6.7 1.3 1.1 1.9.1.2.1.4 0 .6-.3.5-.5 1.1-.7 1.6 0 .1-.1.2-.2.2l-1.3.4-1.2.3.1.1v1.8l.1.1 2.3.6c.1 0 .2.1.2.2.1.2.2.4.2.6.2.4.3.8.5 1.1.1.1.1.3 0 .4l-1.2 2v.2l1.3.9h.2c.7-.4 1.3-.7 1.9-1.2.2-.1.3-.1.5 0 .5.3 1.1.5 1.7.7.1 0 .1.1.2.2l.3 1.2c.1.4.3.9.4 1.4zm11-8.9v.3c0 .1-.1.2-.2.2l-.8.2-1.6.4c-.1 0-.1 0-.1.1-.2.5-.4 1-.7 1.5v.2l1.2 2.1c.1.2.1.2 0 .3L29.9 43c-.2.2-.1.1-.3 0l-2.1-1.2h-.2c-.5.3-1 .5-1.5.6-.1 0-.1.1-.1.1l-.5 2.3c-.1.4-.1.4-.5.4h-2.2c-.1 0-.1-.1-.1-.1-.1-.3-.2-.5-.2-.8-.1-.5-.3-1.1-.4-1.6 0-.1 0-.1-.1-.1-.5-.2-1.1-.4-1.6-.6H20l-2.1 1.2c-.2.1-.2.1-.4 0l-1.7-1.6c-.1-.1-.1-.2 0-.3l1.2-2.1V39c-.3-.5-.5-1-.6-1.5 0-.1 0-.1-.1-.1l-2-.5-.5-.2c-.1 0-.1-.1-.1-.2v-2.3c0-.2 0-.2.2-.3l2-.5.4-.1s.1 0 .1-.1c.2-.5.4-1.1.6-1.6v-.2l-1.2-2.1c-.1-.2-.1-.2 0-.4l1.6-1.6c.1-.1.1-.1.3 0l2.1 1.2h.2c.5-.3 1-.5 1.5-.6.1 0 .1-.1.1-.1.2-.7.4-1.5.6-2.2.1-.5.1-.4.5-.4h2c.2 0 .2 0 .3.2l.4 1.5c.1.3.1.5.2.8 0 0 0 .1.1.1l1.5.6h.2c.7-.4 1.4-.8 2-1.2.2-.1.2-.1.4 0l1.6 1.6c.1.1.1.2 0 .3l-1.2 2.2v.2c.3.5.5 1 .6 1.5 0 .1.1.1.1.1.8.2 1.5.4 2.3.6.3.1.3.1.3.4V36h.2z" mask="url(#b)"/>
        <path stroke="#FFF" stroke-width=".5" d="M22.7 44.9h1.8c.1 0 .1 0 .2-.1l.6-2.3c0-.1.1-.2.2-.2l.5-.2 1.1-.5c.2-.1.4-.1.5 0 .6.4 1.3.8 1.9 1.1 0 .1.1.1.2 0l1.2-1.2c.1-.1.1-.2 0-.2-.3-.6-.7-1.2-1.1-1.8-.2-.3-.2-.3 0-.7l.4-.9.3-.7c0-.1.1-.2.2-.2l.7-.1 1.7-.5c.1 0 .1 0 .1-.1v-1.7c0-.1 0-.1-.1-.1l-.5-.1-1.9-.5c-.1 0-.1-.1-.2-.2-.1-.2-.1-.4-.2-.6-.2-.4-.3-.8-.5-1.1-.1-.1-.1-.3 0-.4.4-.6.8-1.3 1.1-1.9.1-.2.1-.1 0-.3-.4-.4-.8-.7-1.1-1.1-.1-.1-.1-.1-.2 0l-2 1.1c-.1.1-.3.1-.5 0-.6-.3-1.2-.5-1.8-.7l-.1-.1c-.1-.2-.1-.3-.1-.5-.2-.6-.3-1.3-.5-1.9 0-.1 0-.1-.1-.1h-1.7c-.1 0-.2 0-.2.1l-.6 2.3c0 .1-.1.2-.2.2-.6.2-1.2.5-1.8.8-.1.1-.3.1-.4 0-.6-.4-1.3-.8-2-1.2-.1-.1-.1-.1-.2 0l-1.1 1.1c-.1 0-.1.1 0 .2.4.6.7 1.3 1.1 1.9.1.2.1.4 0 .6-.3.5-.5 1.1-.7 1.6 0 .1-.1.2-.2.2l-1.3.4-1.2.3.1.1v1.8l.1.1 2.3.6c.1 0 .2.1.2.2.1.2.2.4.2.6.2.4.3.8.5 1.1.1.1.1.3 0 .4l-1.2 2v.2l1.3.9h.2c.7-.4 1.3-.7 1.9-1.2.2-.1.3-.1.5 0 .5.3 1.1.5 1.7.7.1 0 .1.1.2.2l.3 1.2c.1.4.3.9.4 1.4zm11-8.9v.3c0 .1-.1.2-.2.2l-.8.2-1.6.4c-.1 0-.1 0-.1.1-.2.5-.4 1-.7 1.5v.2l1.2 2.1c.1.2.1.2 0 .3L29.9 43c-.2.2-.1.1-.3 0l-2.1-1.2h-.2c-.5.3-1 .5-1.5.6-.1 0-.1.1-.1.1l-.5 2.3c-.1.4-.1.4-.5.4h-2.2c-.1 0-.1-.1-.1-.1-.1-.3-.2-.5-.2-.8-.1-.5-.3-1.1-.4-1.6 0-.1 0-.1-.1-.1-.5-.2-1.1-.4-1.6-.6H20l-2.1 1.2c-.2.1-.2.1-.4 0l-1.7-1.6c-.1-.1-.1-.2 0-.3l1.2-2.1V39c-.3-.5-.5-1-.6-1.5 0-.1 0-.1-.1-.1l-2-.5-.5-.2c-.1 0-.1-.1-.1-.2v-2.3c0-.2 0-.2.2-.3l2-.5.4-.1s.1 0 .1-.1c.2-.5.4-1.1.6-1.6v-.2l-1.2-2.1c-.1-.2-.1-.2 0-.4l1.6-1.6c.1-.1.1-.1.3 0l2.1 1.2h.2c.5-.3 1-.5 1.5-.6.1 0 .1-.1.1-.1.2-.7.4-1.5.6-2.2.1-.5.1-.4.5-.4h2c.2 0 .2 0 .3.2l.4 1.5c.1.3.1.5.2.8 0 0 0 .1.1.1l1.5.6h.2c.7-.4 1.4-.8 2-1.2.2-.1.2-.1.4 0l1.6 1.6c.1.1.1.2 0 .3l-1.2 2.2v.2c.3.5.5 1 .6 1.5 0 .1.1.1.1.1.8.2 1.5.4 2.3.6.3.1.3.1.3.4V36h.2z" mask="url(#b)"/>
        <path fill="#FFF" d="M27.7 35.3c0-2.2-1.8-4-4.1-4-2.2 0-4 1.8-4 4.1 0 2.2 1.8 4 4.1 4 2.2-.1 4-1.9 4-4.1m-8.6 0c0-2.5 2-4.6 4.5-4.6s4.6 2 4.6 4.5-2 4.6-4.5 4.6h-.2c-2.4-.1-4.3-2.1-4.4-4.5" mask="url(#b)"/>
        <path stroke="#FFF" stroke-width=".5" d="M27.7 35.3c0-2.2-1.8-4-4.1-4-2.2 0-4 1.8-4 4.1 0 2.2 1.8 4 4.1 4 2.2-.1 4-1.9 4-4.1zm-8.6 0c0-2.5 2-4.6 4.5-4.6s4.6 2 4.6 4.5-2 4.6-4.5 4.6h-.2c-2.4-.1-4.3-2.1-4.4-4.5z" mask="url(#b)"/>
    </g>
</svg>
