<svg xmlns="http://www.w3.org/2000/svg" xmlns:xlink="http://www.w3.org/1999/xlink" width="56" height="56" viewBox="0 0 56 56">
    <defs>
        <path id="a" d="M28 0c15.464 0 28 12.536 28 28S43.464 56 28 56 0 43.464 0 28 12.536 0 28 0"/>
    </defs>
    <g fill="none" fill-rule="evenodd">
        <mask id="b" fill="#fff">
            <use xlink:href="#a"/>
        </mask>
        <use fill="#080E18" xlink:href="#a"/>
        <path fill="#07182E" d="M16.7 6.6h10.6c.4 0 .7.3.7.7v2.2c0 .5.4.9.9.9h19.8c.5 0 .9.4.9.9l.1 39.7H16.1L16 7.3c0-.4.4-.7.7-.7" mask="url(#b)"/>
        <path fill="#2356AD" d="M12.6 10.1h10.6c.4 0 .7.3.7.7V13c0 .5.4.9.9.9l19.8-.1c.5 0 .9.4.9.9l.1 39.8-33.6.1-.1-43.8c0-.4.3-.7.7-.7" mask="url(#b)"/>
        <path fill="#3177ED" d="M7.6 13.5h10.6c.4 0 .7.3.7.7v2.3c0 .5.4.9.8.9l19.8-.1c.5 0 .9.5.9 1l.1 39.7H7.1l-.2-43.8c0-.4.3-.7.7-.7" mask="url(#b)"/>
        <path fill="#FFF" d="M23.7 35.9c2.1 0 3.8-1.7 3.8-3.8 0-2.1-1.7-3.8-3.8-3.8-2.1 0-3.8 1.7-3.8 3.8.1 2.1 1.7 3.8 3.8 3.8zm8.3 7c0 .2-.1.3-.2.4-.2.2-.4.2-.7.1-.2-.1-.4-.3-.4-.6 0-.2-.1-.5-.2-.7-.7-2.3-2.6-4.1-4.9-4.7-3.7-1-7.6 1.2-8.6 4.9 0 .1-.1.2-.1.3 0 .1 0 .2-.1.3-.1.4-.4.6-.8.5-.4-.1-.6-.4-.5-.8.1-.5.2-.9.4-1.4.8-2.3 2.7-4.2 5-5h.1c-1.4-.9-2.3-2.5-2.3-4.2 0-1.3.5-2.7 1.4-3.6 1.9-2 5.1-2.1 7.1-.1 1.5 1.5 2 3.7 1.2 5.7-.4.9-1 1.7-1.9 2.3l.6.3c1.9.8 3.4 2.3 4.2 4.2.2.5.4 1.1.5 1.7l.1.1.1.3z" mask="url(#b)"/>
    </g>
</svg>
