<?xml version="1.0" encoding="UTF-8"?>
<svg width="24px" height="24px" viewBox="0 0 24 24" version="1.1" xmlns="http://www.w3.org/2000/svg" xmlns:xlink="http://www.w3.org/1999/xlink">
    <!-- Generator: Sketch 50 (54983) - http://www.bohemiancoding.com/sketch -->
    <title>Slice</title>
    <desc>Created with Sketch.</desc>
    <defs></defs>
    <g id="ðŸ -home" stroke="none" stroke-width="1" fill="none" fill-rule="evenodd">
        <g id="24x24/installs--dark">
            <rect id="Rectangle-3" x="0" y="0" width="24" height="24"></rect>
            <path d="M14.9937744,18 L18,18 C20.209139,18 22,16.209139 22,14 C22,11.790861 20.209139,10 18,10 C18,8.34314575 16.6568542,7 15,7 C14.2524033,7 13.5686759,7.27345718 13.0433869,7.72580245 C12.2196198,6.6751084 10.9386499,6 9.5,6 C7.01471863,6 5,8.01471863 5,10.5 C5,11.0259531 5.09023133,11.5308316 5.25605856,12 L5,12 C3.34314575,12 2,13.3431458 2,15 C2,16.6568542 3.34314575,18 5,18 L8.49377441,18 L14.9937744,18 Z" id="Combined-Shape" stroke="#1D74F5" stroke-width="1.5"></path>
        </g>
    </g>
</svg>