<svg width="12" height="16" xmlns="http://www.w3.org/2000/svg"><path d="M9.6 0C8.269 0 7.2 1.018 7.2 2.286c0 .839.487 1.571 1.2 1.964v1.082c0 .244-.1.478-.277.646L6 8 3.877 5.978a.893.893 0 0 1-.277-.646V4.25c.712-.393 1.2-1.125 1.2-1.964C4.8 1.018 3.731 0 2.4 0S0 1.018 0 2.286c0 .839.487 1.571 1.2 1.964v1.653c0 .244.1.478.277.647L4.8 9.714v2.036c-.712.393-1.2 1.125-1.2 1.964C3.6 14.982 4.669 16 6 16s2.4-1.018 2.4-2.286c0-.839-.488-1.571-1.2-1.964V9.714l3.323-3.164a.893.893 0 0 0 .277-.647V4.25c.712-.393 1.2-1.125 1.2-1.964C12 1.018 10.931 0 9.6 0zM2.4 3.66c-.788 0-1.444-.624-1.444-1.374C.956 1.536 1.612.91 2.4.91c.788 0 1.444.625 1.444 1.375S3.188 3.66 2.4 3.66zM6 15.09c-.787 0-1.444-.626-1.444-1.376 0-.75.657-1.375 1.444-1.375.787 0 1.444.625 1.444 1.375S6.787 15.09 6 15.09zM9.6 3.66c-.787 0-1.444-.624-1.444-1.374 0-.75.656-1.375 1.444-1.375.787 0 1.444.625 1.444 1.375S10.387 3.66 9.6 3.66z" fill="#F3F5F8" fill-rule="nonzero"/></svg>