<?xml version="1.0" encoding="utf-8"?>
<!-- Generator: Adobe Illustrator 16.0.0, SVG Export Plug-In . SVG Version: 6.00 Build 0)  -->
<!DOCTYPE svg PUBLIC "-//W3C//DTD SVG 1.1//EN" "http://www.w3.org/Graphics/SVG/1.1/DTD/svg11.dtd">
<svg version="1.1" id="Layer_5" xmlns="http://www.w3.org/2000/svg" xmlns:xlink="http://www.w3.org/1999/xlink" x="0px" y="0px"
	 width="512px" height="512px" viewBox="0 0 512 512" enable-background="new 0 0 512 512" xml:space="preserve">
<path fill="#CC3333" d="M491.3,255.3c0-24.1-7.2-47.2-21.4-68.7c-12.8-19.3-30.7-36.4-53.2-50.7c-43.5-27.8-100.6-43.1-160.9-43.1
	c-20.1,0-40,1.7-59.2,5.1c-11.9-11.2-25.9-21.2-40.7-29.2c-79-38.3-144.6-0.9-144.6-0.9s60.9,50.1,51,93.9c-27.3,27-42,59.6-42,93.6
	c0,0.1,0,0.2,0,0.3c0,0.1,0,0.2,0,0.3c0,33.9,14.8,66.6,42,93.6c9.9,43.9-51,93.9-51,93.9s65.5,37.4,144.6-0.9
	c14.8-8,28.8-18,40.7-29.2c19.2,3.4,39.1,5.1,59.2,5.1c60.3,0,117.4-15.3,160.9-43.1c22.5-14.4,40.4-31.5,53.2-50.7
	c14.2-21.5,21.4-44.6,21.4-68.7c0-0.1,0-0.2,0-0.3C491.3,255.6,491.3,255.4,491.3,255.3z"/>
<path fill="#FFFFFF" d="M255.9,124.2c113.9,0,206.3,59,206.3,131.8c0,72.8-92.4,131.8-206.3,131.8c-25.4,0-49.7-2.9-72.1-8.3
	c-22.8,27.4-73,65.6-121.7,53.3c15.9-17,39.4-45.8,34.3-93.2c-29.2-22.7-46.8-51.8-46.8-83.5C49.6,183.2,142,124.2,255.9,124.2"/>
<g>
	<g>
		<circle fill="#CC3333" cx="255.9" cy="256" r="27.4"/>
	</g>
	<g>
		<circle fill="#CC3333" cx="351.2" cy="256" r="27.4"/>
	</g>
	<g>
		<circle fill="#CC3333" cx="160.6" cy="256" r="27.4"/>
	</g>
</g>
<g>
	<path fill="#CCCCCC" d="M255.8,372.8c-25.4,0-56.2-4.9-78.7-9.5c-20.1,21-53.7,52.7-99.6,50.3c-5.7,8.6-10.2,13.5-15.5,19.2
		c48.7,12.3,98.9-25.8,121.7-53.3c22.4,5.4,46.7,8.3,72.1,8.3c113,0,204.8-58.1,206.3-130C460.7,320.1,368.8,372.8,255.8,372.8z"/>
	<path fill="none" stroke="#000000" stroke-miterlimit="10" d="M172,350.9"/>
	<path fill="none" stroke="#000000" stroke-miterlimit="10" d="M200.4,422.9"/>
</g>
</svg>