<svg xmlns="http://www.w3.org/2000/svg" width="435.721" height="85.242" viewBox="62.402 -18.766 435.721 85.242"><g fill="#F4F4F4"><path d="M205.456 22.207c0 4.297-1.603 7.119-4.681 8.465l4.425 16.803c.192.771-.192 1.154-.898 1.154h-6.67c-.641 0-.961-.32-1.09-.898l-4.297-16.289h-4.425v16.162c0 .642-.384 1.025-1.026 1.025h-6.67c-.641 0-1.026-.385-1.026-1.025V-1.651c0-.641.385-1.026 1.026-1.026h16.097c6.028 0 9.235 3.207 9.235 9.235v15.649zm-11.287.769c1.667 0 2.565-.898 2.565-2.565V8.354c0-1.667-.898-2.564-2.565-2.564h-6.349v17.187l6.349-.001zM210.583 6.558c0-6.028 3.206-9.235 9.235-9.235h7.183c6.028 0 9.235 3.207 9.235 9.235v32.836c0 6.027-3.207 9.234-9.235 9.234h-7.183c-6.029 0-9.235-3.207-9.235-9.234V6.558zm14.814 33.797c1.667 0 2.565-.834 2.565-2.565V8.162c0-1.667-.898-2.565-2.565-2.565h-3.719c-1.667 0-2.565.898-2.565 2.565v29.629c0 1.73.898 2.564 2.565 2.564h3.719zM268.362 13.484c0 .642-.385 1.026-1.025 1.026h-6.413c-.706 0-1.026-.384-1.026-1.026v-5.13c0-1.667-.897-2.564-2.564-2.564h-3.335c-1.731 0-2.565.897-2.565 2.564V37.6c0 1.731.897 2.563 2.565 2.563h3.335c1.667 0 2.564-.833 2.564-2.563v-5.132c0-.642.32-1.026 1.026-1.026h6.413c.643 0 1.025.384 1.025 1.026v6.927c0 6.027-3.271 9.234-9.234 9.234h-7.183c-6.028 0-9.299-3.207-9.299-9.234V6.558c0-6.028 3.271-9.235 9.299-9.235h7.183c5.964 0 9.234 3.207 9.234 9.235v6.926zM295.422 48.629c-.771 0-1.218-.32-1.476-.961l-8.079-19.048-2.374 4.554v14.172c0 .834-.448 1.283-1.282 1.283h-6.157c-.834 0-1.283-.449-1.283-1.283v-48.74c0-.833.449-1.283 1.283-1.283h6.157c.833 0 1.282.449 1.282 1.283v19.881l9.876-20.202c.321-.641.771-.962 1.476-.962h6.733c.962 0 1.347.642.897 1.539l-10.901 22.382 11.606 25.91c.449.834.064 1.475-.961 1.475h-6.797zM333.45 4.763c0 .641-.257 1.09-1.026 1.09h-16.033v12.826h12.249c.643 0 1.026.385 1.026 1.09v6.349c0 .706-.385 1.091-1.026 1.091h-12.249v12.954h16.033c.771 0 1.026.321 1.026 1.026v6.414c0 .641-.257 1.024-1.026 1.024h-23.6c-.578 0-.963-.385-.963-1.024V-1.651c0-.641.385-1.026.963-1.026h23.6c.771 0 1.026.385 1.026 1.026v6.414zM363.204-2.677c.705 0 1.026.385 1.026 1.026v6.414c0 .641-.321 1.026-1.026 1.026h-7.439v41.814c0 .705-.32 1.024-1.025 1.024h-6.67c-.643 0-1.026-.319-1.026-1.024V5.789h-7.438c-.643 0-1.026-.385-1.026-1.026v-6.414c0-.641.385-1.026 1.026-1.026h23.598zM363.585 41.445c0-.834.449-1.282 1.283-1.282h5.836c.834 0 1.282.448 1.282 1.282v5.899c0 .835-.448 1.283-1.282 1.283h-5.836c-.834 0-1.283-.448-1.283-1.283v-5.899zM404.114 13.484c0 .642-.386 1.026-1.026 1.026h-6.413c-.705 0-1.025-.384-1.025-1.026v-5.13c0-1.667-.897-2.564-2.564-2.564h-3.335c-1.732 0-2.565.897-2.565 2.564V37.6c0 1.731.897 2.563 2.565 2.563h3.335c1.667 0 2.564-.833 2.564-2.563v-5.132c0-.642.32-1.026 1.025-1.026h6.413c.643 0 1.026.384 1.026 1.026v6.927c0 6.027-3.271 9.234-9.235 9.234h-7.183c-6.028 0-9.299-3.207-9.299-9.234V6.558c0-6.028 3.271-9.235 9.299-9.235h7.183c5.965 0 9.235 3.207 9.235 9.235v6.926zM427.455-1.651c0-.641.384-1.026 1.025-1.026h6.605c.77 0 1.089.385 1.089 1.026v49.254c0 .641-.32 1.024-1.089 1.024h-6.605c-.643 0-1.025-.385-1.025-1.024V27.209h-8.209v20.395c0 .642-.385 1.025-1.026 1.025h-6.604c-.771 0-1.091-.385-1.091-1.025V-1.651c0-.641.32-1.026 1.091-1.026h6.604c.643 0 1.026.385 1.026 1.026v20.394h8.209V-1.651zM465.419 48.629c-.577 0-.897-.32-1.026-.898l-1.795-9.362h-11.416l-1.73 9.362c-.129.578-.449.898-1.026.898h-6.861c-.705 0-1.026-.385-.835-1.09l10.646-49.318c.129-.641.513-.898 1.09-.898h8.915c.577 0 .962.257 1.09.898l10.646 49.318c.129.705-.128 1.09-.897 1.09h-6.801zm-8.53-40.083l-4.104 22.382h8.209l-4.105-22.382zM497.097-2.677c.705 0 1.026.385 1.026 1.026v6.414c0 .641-.321 1.026-1.026 1.026h-7.438v41.814c0 .705-.321 1.024-1.026 1.024h-6.67c-.641 0-1.025-.319-1.025-1.024V5.789H473.5c-.642 0-1.025-.385-1.025-1.026v-6.414c0-.641.385-1.026 1.025-1.026h23.597z"/></g><path fill="#C1272D" d="M162.586 23.788c0-5.031-1.505-9.854-4.474-14.339-2.666-4.025-6.401-7.588-11.1-10.591-9.074-5.796-21-8.989-33.579-8.989-4.202 0-8.344.355-12.361 1.059a40.898 40.898 0 0 0-8.497-6.091c-16.494-7.994-30.172-.188-30.172-.188S75.12-4.904 73.052 4.253c-5.689 5.644-8.773 12.45-8.773 19.535l.001.068-.001.068c0 7.085 3.083 13.891 8.773 19.534 2.068 9.158-10.649 19.605-10.649 19.605s13.678 7.805 30.172-.188a40.962 40.962 0 0 0 8.497-6.091 71.772 71.772 0 0 0 12.361 1.058c12.58 0 24.505-3.191 33.579-8.987 4.699-3.003 8.434-6.565 11.1-10.592 2.969-4.484 4.474-9.309 4.474-14.338l-.001-.068.001-.069z"/><path fill="#FFF" d="M113.433-3.018c23.293 0 42.177 12.062 42.177 26.941 0 14.878-18.884 26.941-42.177 26.941-5.187 0-10.154-.6-14.743-1.693-4.664 5.61-14.924 13.411-24.891 10.89 3.242-3.482 8.045-9.366 7.017-19.058-5.974-4.648-9.56-10.597-9.56-17.08-.001-14.88 18.883-26.941 42.177-26.941"/><circle fill="#C1272D" cx="113.433" cy="24.79" r="5.603"/><circle fill="#C1272D" cx="132.913" cy="24.79" r="5.603"/><circle fill="#C1272D" cx="93.952" cy="24.79" r="5.602"/><g><path fill="#CCC" d="M113.433 47.319c-5.187 0-10.154-.52-14.743-1.468-4.118 4.294-12.6 10.066-21.39 9.854-1.158 1.755-2.417 3.19-3.501 4.355 9.967 2.521 20.227-5.279 24.891-10.89 4.589 1.094 9.557 1.693 14.743 1.693 23.106 0 41.87-11.871 42.169-26.585-.299 12.754-19.063 23.041-42.169 23.041z"/></g></svg>